<?xml version="1.0" encoding="UTF-8"?>
<svg width="206px" height="69px" viewBox="0 0 206 69" version="1.1" xmlns="http://www.w3.org/2000/svg" xmlns:xlink="http://www.w3.org/1999/xlink">
    <!-- Generator: Sketch 53.2 (72643) - https://sketchapp.com -->
    <title>JazzApartments</title>
    <desc>Created with Sketch.</desc>
    <g id="JazzApartments" stroke="none" stroke-width="1" fill="none" fill-rule="evenodd">
        <g id="LogoJazzApartments" transform="translate(5.000000, 7.000000)" fill="#FFFFFF" fill-rule="nonzero">
            <path d="M7.88323232,0.161414141 L7.88323232,15.9820202 C7.88323232,21.3288889 5.89757576,23.4240404 3.06121212,23.4240404 C1.42444444,23.4240404 0.246060606,22.6808081 0.246060606,21.6349495 C0.246060606,20.8917172 0.747272727,20.3462626 1.51232323,20.3462626 C2.97353535,20.3462626 2.95171717,22.2462626 4.08606061,22.2462626 C4.91636364,22.2462626 5.02525253,21.3725253 5.02525253,19.9981818 L5.02525253,0.161414141 L7.88323232,0.161414141" id="Fill-1"></path>
            <path d="M17.1579798,13.1450505 L15.6959596,13.690303 C13.4919192,14.5206061 12.4876768,15.0666667 12.4876768,16.2008081 C12.4876768,17.0509091 13.0331313,17.9682828 14.3862626,17.9682828 C15.3676768,17.9682828 16.219596,17.5317172 17.1579798,16.5490909 L17.1579798,13.1450505 Z M10.589697,9.39333333 C11.1343434,6.75212121 15.4545455,6.92626263 15.4545455,6.92626263 C18.0521212,6.92626263 19.4488889,7.77757576 19.4488889,9.84969697 L19.4488889,19.8010101 L17.1579798,19.8010101 L17.1579798,17.8377778 C15.5648485,19.2549495 14.4515152,19.8010101 13.12,19.8010101 C11.3309091,19.8010101 10.0660606,18.5789899 10.0660606,16.8767677 C10.0660606,15.1965657 11.2438384,13.8664646 14.2333333,12.840202 L17.1579798,11.8365657 L17.1579798,10.2650505 C17.1579798,8.65010101 15.5424242,8.1040404 14.6480808,8.1040404 C13.5783838,8.1040404 12.5311111,8.7589899 12.5311111,9.39333333 L10.589697,9.39333333 L10.589697,9.39333333 Z" id="Fill-2"></path>
            <polyline id="Fill-3" points="32.1054545 19.8010101 21.6305051 19.8010101 21.6305051 19.3638384 30.0749495 8.28 22.8082828 8.28 22.8082828 6.92626263 32.8684848 6.92626263 32.8684848 7.90808081 24.7074747 18.5353535 32.2571717 18.5353535 32.1054545 19.8010101"></polyline>
            <polyline id="Fill-4" points="45.5242424 19.8010101 35.049899 19.8010101 35.049899 19.3644444 43.4945455 8.28 36.2276768 8.28 36.2276768 6.92626263 46.2878788 6.92626263 46.2878788 7.90808081 38.1262626 18.5353535 45.6771717 18.5353535 45.5242424 19.8010101"></polyline>
            <path d="M132.007879,32.3531313 C130.649293,31.069899 128.902828,30.2937374 126.769697,30.2937374 C122.496768,30.2937374 119.111313,33.3444444 119.111313,39.6086869 C119.111313,46.0965657 122.184444,51.7949495 127.905859,51.7949495 C129.671919,51.7949495 131.207879,51.2856566 132.436364,50.3426263 C133.016768,49.9010101 134.352727,51.5193939 133.501414,51.9767677 C131.563232,53.0220202 129.290707,53.6163636 126.825657,53.6163636 C120.41697,53.6163636 114.808889,48.7191919 114.808889,41.5157576 C114.808889,32.8589899 121.188687,28.5052525 127.395556,28.5052525 C129.886869,28.5052525 132.16404,29.1509091 134.071717,30.299596" id="Fill-5"></path>
            <path d="M3.73010101,42.0579798 L3.73010101,48.4890909 C3.73010101,50.7959596 4.84121212,52.0777778 7.08666667,52.0777778 L8.88242424,52.0777778 C11.7872727,52.0777778 13.5539394,50.2531313 13.5539394,47.3791919 C13.5539394,44.7036364 11.8169697,42.0579798 7.31616162,42.0579798 L3.73010101,42.0579798 Z M3.73010101,39.8084848 L7.11575758,39.8084848 C10.8777778,39.8084848 12.5826263,39.0387879 12.5826263,35.7929293 C12.5826263,32.5185859 10.420202,30.8686869 6.57676768,30.8686869 L3.73010101,30.8686869 L3.73010101,39.8084848 Z M0,29.3585859 L9.13959596,29.3585859 C14.0941414,29.3585859 16.9127273,31.4919192 16.9127273,35.2224242 C16.9127273,38.4967677 14.6909091,40.1763636 9.68161616,40.9163636 C15.9458586,41.0587879 17.8511111,44.3884848 17.8511111,47.1240404 C17.8511111,51.1947475 14.0650505,53.6163636 9.7369697,53.6163636 L0,53.6163636 L0,29.3585859 L0,29.3585859 Z" id="Fill-6"></path>
            <path d="M39.6729293,51.5066667 L39.3022222,53.6163636 L20.7105051,53.6163636 L20.7105051,29.3585859 L24.439798,29.3585859 L24.439798,46.8086869 C24.439798,50.0836364 25.6624242,51.5066667 29.1377778,51.5066667 L39.6729293,51.5066667" id="Fill-7"></path>
            <path d="M63.3145455,29.3585859 L63.3145455,44.4741414 C63.3145455,51.7626263 58.5044444,54.0444444 52.9826263,54.0444444 C45.6640404,54.0444444 42.5343434,50.3414141 42.5343434,46.1816162 L42.5343434,29.3585859 L46.2628283,29.3585859 L46.2628283,45.4725253 C46.2628283,49.4274747 48.510303,51.9036364 53.2670707,51.9036364 C57.3080808,51.9036364 61.1529293,49.7723232 61.1529293,44.1913131 L61.1529293,29.3585859 L63.3145455,29.3585859" id="Fill-8"></path>
            <path d="M69.9086869,31.4351515 L69.9086869,39.9173737 L80.8965657,39.9173737 L80.8965657,42.0260606 L69.9086869,42.0260606 L69.9086869,47.0387879 C69.9086869,50.4555556 70.8741414,51.5066667 74.0632323,51.5066667 L83.659798,51.5066667 L83.260202,53.6163636 L66.1773737,53.6163636 L66.1773737,29.3585859 L82.9745455,29.3585859 L82.9745455,31.4351515 L69.9086869,31.4351515" id="Fill-9"></path>
            <path d="M92.330303,31.4351515 L92.330303,47.7240404 C92.330303,49.9983838 93.7549495,51.479596 96.0616162,51.479596 L98.0834343,51.479596 C104.461212,51.479596 107.479798,47.379798 107.479798,42.1955556 C107.479798,36.6470707 104.175758,31.4351515 95.7759596,31.4351515 L92.330303,31.4351515 Z M88.6010101,53.6163636 L88.6010101,29.3585859 L98.4230303,29.3585859 C102.953737,29.3585859 105.910101,30.5238384 108.331515,32.9440404 C111.039394,35.6519192 111.949495,38.3266667 111.949495,41.3179798 C111.949495,46.8377778 107.905051,53.6163636 98.1375758,53.6163636 L88.6010101,53.6163636 L88.6010101,53.6163636 Z" id="Fill-10"></path>
            <path d="M139.596566,51.7949495 C144.26303,51.7949495 147.337374,48.2331313 147.337374,42.5109091 C147.337374,36.3351515 144.40404,30.2937374 138.45697,30.2937374 C134.186667,30.2937374 130.798788,33.3444444 130.798788,39.6086869 C130.798788,46.0965657 133.872727,51.7949495 139.596566,51.7949495 Z M139.08202,28.5052525 C146.286061,28.5052525 151.668687,33.9121212 151.668687,41.1715152 C151.668687,48.2060606 145.969697,53.6163636 138.513737,53.6163636 C132.106061,53.6163636 126.5,48.7191919 126.5,41.5157576 C126.5,32.8589899 132.876162,28.5052525 139.08202,28.5052525 L139.08202,28.5052525 Z" id="Fill-11"></path>
            <path d="M158.25798,40.6327273 L161.617374,40.6327273 C165.60303,40.6327273 167.340202,38.8931313 167.340202,36.0482828 C167.340202,33.3444444 165.401414,30.8686869 161.047677,30.8686869 L158.25798,30.8686869 L158.25798,40.6327273 Z M158.25798,42.710101 L158.25798,53.6163636 L154.526667,53.6163636 L154.526667,29.3585859 L162.560404,29.3585859 C169.219798,29.3585859 171.641212,32.1474747 171.641212,35.619596 C171.641212,38.2131313 169.817172,40.9163636 165.033333,41.6858586 L170.103434,47.4939394 C170.103434,47.4939394 174.660202,52.5038384 176.02404,53.2430303 L176.02404,53.6163636 L173.175152,53.6163636 C170.613737,53.6163636 169.533737,52.8189899 166.882424,49.5131313 L162.131919,43.6236364 C161.306061,42.539798 160.903838,42.710101 159.285455,42.710101 L158.25798,42.710101 L158.25798,42.710101 Z" id="Fill-12"></path>
            <path d="M192.72303,33.3121212 C190.359394,30.9248485 187.426263,31.0066667 187.426263,31.0066667 C185.346263,31.0066667 183.039394,31.92 183.039394,33.8264646 C183.039394,34.7094949 183.416566,35.4777778 184.180404,36.2466667 C186.086061,38.1242424 191.384444,40.2325253 194.035354,42.9080808 C195.314747,44.1913131 195.99798,45.5834343 195.99798,47.3230303 C195.99798,51.2767677 192.294545,54.0444444 187.113535,54.0444444 C184.524646,54.0444444 180.679798,53.2430303 178.884848,52.3371717 L181.647879,49.5725253 C183.072323,51.6490909 186.99899,51.7626263 186.99899,51.7626263 C189.961212,51.7626263 192.351111,50.5115152 192.351111,48.349899 C192.351111,47.7240404 192.096566,46.780404 191.069091,45.7573737 C188.737172,43.449899 183.982424,41.7987879 180.992323,38.8086869 C179.996768,37.8163636 179.396566,36.6470707 179.396566,35.0517172 C179.396566,31.3785859 182.728283,28.9292929 187.62404,28.9292929 C190.016566,28.9292929 192.72303,29.6375758 195.086465,30.9525253 L192.72303,33.3121212" id="Fill-13"></path>
            <path d="M137.759192,40.3656566 C136.728889,40.1355556 135.900606,39.3763636 135.69798,38.2765657 C135.429091,36.8084848 136.402626,35.4038384 137.871313,35.1335354 C139.338182,34.8650505 140.742626,35.8383838 141.010303,37.3044444 C141.201616,38.3488889 140.762626,39.369899 139.959192,39.9640404 L142.513939,46.1309091 L137.578586,47.0323232 L137.759192,40.3656566" id="Fill-14"></path>
            <path d="M65.3462626,10.7573737 L62.7422222,4.12909091 L59.8583838,10.7573737 L65.3462626,10.7573737 Z M65.970303,12.6513131 L59.2987879,12.6513131 L56.5440404,19.6026263 L54.6717172,19.6026263 L61.7092929,2.12747475 L61.2787879,1.26666667 L64.1626263,1.26666667 L72.0391919,19.6026263 L68.940404,19.6026263 L65.970303,12.6513131 L65.970303,12.6513131 Z" id="Fill-38"></path>
            <path d="M76.3177778,15.0161616 C76.3177778,17.2268687 77.7226263,18.4870707 79.5406061,18.4870707 C81.7513131,18.4870707 83.1149495,16.9167677 83.1149495,14.0864646 C83.1149495,10.4917172 80.9248485,9.23131313 79.3753535,9.23131313 C78.3838384,9.23131313 77.3094949,9.91313131 76.3177778,10.6775758 L76.3177778,15.0161616 Z M74.1484848,7.41333333 L76.3177778,7.41333333 L76.3177778,9.08686869 C77.6606061,7.74383838 78.9622222,7.41333333 80.5323232,7.41333333 C83.3214141,7.41333333 85.2840404,9.68585859 85.2840404,12.8882828 C85.2840404,16.6068687 82.6189899,19.6026263 79.3341414,19.6026263 C78.3424242,19.6026263 77.3094949,19.3341414 76.3177778,18.8589899 L76.3177778,24.7676768 L74.1484848,24.7676768 L74.1484848,7.41333333 L74.1484848,7.41333333 Z" id="Fill-39"></path>
            <path d="M94.0646465,13.3014141 L92.6806061,13.8179798 C90.5939394,14.6028283 89.6436364,15.1193939 89.6436364,16.1937374 C89.6436364,16.999596 90.16,17.8672727 91.4408081,17.8672727 C92.3707071,17.8672727 93.1763636,17.4541414 94.0646465,16.5244444 L94.0646465,13.3014141 Z M87.8462626,9.74787879 C88.3626263,7.24808081 92.4533333,7.41333333 92.4533333,7.41333333 C94.9117172,7.41333333 96.2341414,8.2189899 96.2341414,10.1818182 L96.2341414,19.6026263 L94.0646465,19.6026263 L94.0646465,17.7432323 C92.5565657,19.0860606 91.5030303,19.6026263 90.2426263,19.6026263 C88.5484848,19.6026263 87.350303,18.4456566 87.350303,16.8343434 C87.350303,15.2434343 88.4658586,13.9830303 91.2963636,13.0121212 L94.0646465,12.0618182 L94.0646465,10.5743434 C94.0646465,9.04545455 92.5357576,8.52888889 91.6888889,8.52888889 C90.6765657,8.52888889 89.6848485,9.14868687 89.6848485,9.74787879 L87.8462626,9.74787879 L87.8462626,9.74787879 Z" id="Fill-40"></path>
            <path d="M98.300404,7.41333333 L100.469495,7.41333333 L100.469495,9.5620202 L100.531515,9.5620202 C101.688687,7.64060606 102.328889,7.41333333 103.671919,7.41333333 C103.671919,7.41333333 104.952929,7.45454545 105.386465,8.42565657 L103.651111,10.1610101 C103.506667,9.27272727 102.597778,9.45858586 102.597778,9.45858586 C101.977778,9.45858586 101.502626,9.89252525 100.469495,11.3593939 L100.469495,19.6026263 L98.300404,19.6026263 L98.300404,7.41333333" id="Fill-41"></path>
            <path d="M111.56404,8.69414141 L111.56404,16.4830303 C111.56404,17.6606061 111.853333,18.0325253 113.361616,18.0325253 C113.877778,18.0325253 114.621616,17.9292929 115.2,17.6191919 L115.2,19.1688889 C114.208485,19.6026263 112.906869,19.6026263 111.812121,19.6026263 C110.11798,19.6026263 109.394747,18.900202 109.394747,17.330101 L109.394747,8.69414141 L107.452727,8.69414141 L107.452727,7.99171717 C108.919394,7.47535354 109.870101,6.35959596 110.675758,5.34727273 L111.56404,5.34727273 L111.56404,7.41333333 L115.076364,7.41333333 L115.076364,8.69414141 L111.56404,8.69414141" id="Fill-42"></path>
            <path d="M117.266263,7.41333333 L119.435556,7.41333333 L119.435556,9.25212121 C120.985051,7.80585859 122.121414,7.41333333 123.753535,7.41333333 C125.426869,7.41333333 126.377374,7.86787879 126.997172,9.27272727 C128.567273,7.80585859 129.641616,7.41333333 131.191111,7.41333333 C133.25697,7.41333333 134.765253,8.75616162 134.765253,10.9254545 L134.765253,19.6026263 L132.59596,19.6026263 L132.59596,11.6692929 C132.59596,10.119798 131.50101,9.39676768 130.054747,9.39676768 C129.06303,9.39676768 127.947475,10.0371717 127.100404,10.7189899 L127.100404,19.6026263 L124.931111,19.6026263 L124.931111,12.0824242 C124.931111,10.1818182 124.290707,9.4379798 122.617172,9.4379798 C121.315758,9.4379798 120.468485,9.89252525 119.435556,10.8428283 L119.435556,19.6026263 L117.266263,19.6026263 L117.266263,7.41333333" id="Fill-43"></path>
            <path d="M144.289697,10.9668687 C143.938384,9.41737374 143.153333,8.63232323 141.748485,8.63232323 C140.240606,8.63232323 139.289899,9.66525253 138.918384,10.9668687 L144.289697,10.9668687 Z M138.773535,12.1650505 C138.649697,15.6359596 140.839596,17.5367677 143.236162,17.5367677 C144.455152,17.5367677 145.488081,17.1440404 146.459192,16.2971717 L146.996162,16.7929293 C145.901212,18.590303 144.165859,19.6026263 142.20303,19.6026263 C139.083434,19.6026263 136.831717,17.1028283 136.831717,13.6319192 C136.831717,10.0989899 139.186869,7.41333333 142.223838,7.41333333 C145.550101,7.41333333 146.996162,10.3262626 146.996162,12.1650505 L138.773535,12.1650505 L138.773535,12.1650505 Z" id="Fill-44"></path>
            <path d="M149.062424,7.41333333 L151.231717,7.41333333 L151.231717,9.47919192 L151.293535,9.47919192 C152.347273,8.09515152 154,7.41333333 155.405051,7.41333333 C157.822222,7.41333333 159.206263,8.92141414 159.206263,11.7105051 L159.206263,19.6026263 L157.037172,19.6026263 L157.037172,12.2682828 C157.037172,10.6363636 156.293131,9.4379798 154.619798,9.4379798 C153.421616,9.4379798 152.347273,10.140404 151.231717,11.070101 L151.231717,19.6026263 L149.062424,19.6026263 L149.062424,7.41333333" id="Fill-45"></path>
            <path d="M165.383636,8.69414141 L165.383636,16.4830303 C165.383636,17.6606061 165.672929,18.0325253 167.18101,18.0325253 C167.697576,18.0325253 168.441212,17.9292929 169.019798,17.6191919 L169.019798,19.1688889 C168.028081,19.6026263 166.726465,19.6026263 165.631515,19.6026263 C163.937374,19.6026263 163.214343,18.900202 163.214343,17.330101 L163.214343,8.69414141 L161.272323,8.69414141 L161.272323,7.99171717 C162.739192,7.47535354 163.689697,6.35959596 164.495354,5.34727273 L165.383636,5.34727273 L165.383636,7.41333333 L168.895758,7.41333333 L168.895758,8.69414141 L165.383636,8.69414141" id="Fill-46"></path>
            <path d="M172.84202,17.3713131 C173.585657,18.4662626 175.052727,18.3836364 175.052727,18.3836364 C176.416162,18.3836364 177.263232,17.7638384 177.407879,16.8135354 C177.717778,14.830303 173.99899,14.8715152 171.871111,12.7642424 C171.354343,12.2478788 171.085859,11.3593939 171.085859,10.6155556 C171.085859,8.73555556 172.635354,7.41333333 174.845859,7.41333333 C176.209495,7.41333333 177.387273,7.78525253 178.337576,8.52888889 L177.077172,9.83050505 C176.560808,8.54949495 174.907879,8.63232323 174.907879,8.63232323 C174.205657,8.63232323 173.110707,8.98343434 172.966061,10.0989899 C172.71798,12.0206061 176.891111,12.4957576 178.358182,13.9830303 C178.895152,14.520404 179.184444,15.3466667 179.184444,16.1937374 C179.184444,18.3010101 177.655758,19.6026263 175.238586,19.6026263 C173.936768,19.6026263 172.428889,19.2721212 171.43697,18.7763636 L172.84202,17.3713131" id="Fill-47"></path>
        </g>
    </g>
</svg>