<?xml version="1.0" encoding="UTF-8"?>
<svg width="206px" height="69px" viewBox="0 0 206 69" version="1.1" xmlns="http://www.w3.org/2000/svg" xmlns:xlink="http://www.w3.org/1999/xlink">
    <!-- Generator: Sketch 53.2 (72643) - https://sketchapp.com -->
    <title>93LuxSuites</title>
    <desc>Created with Sketch.</desc>
    <g id="93LuxSuites" stroke="none" stroke-width="1" fill="none" fill-rule="evenodd">
        <g id="Logo93LuxurySuites" transform="translate(5.000000, 7.000000)" fill="#FFFFFF" fill-rule="nonzero">
            <path d="M131.388059,32.218286 C130.035818,30.9426496 128.297655,30.1709783 126.173771,30.1709783 C121.921768,30.1709783 118.55216,33.2050496 118.55216,39.4354691 C118.55216,45.8876333 121.61069,51.5544182 127.305312,51.5544182 C129.062237,51.5544182 130.590997,51.0486389 131.81453,50.1112638 C132.391497,49.6709999 133.721345,51.2814707 132.874656,51.7362488 C130.944843,52.775828 128.683577,53.3662735 126.230258,53.3662735 C119.851546,53.3662735 114.269896,48.494947 114.269896,41.3315874 C114.269896,32.7224527 120.619558,28.3915784 126.797339,28.3915784 C129.277086,28.3915784 131.542791,29.0344362 133.441738,30.1758163" id="Fill-1"></path>
            <path d="M3.71316491,41.8704268 L3.71316491,48.26655 C3.71316491,50.5610023 4.81848005,51.8362355 7.05392395,51.8362355 L8.84070552,51.8362355 C11.7319953,51.8362355 13.4909372,50.0217596 13.4909372,47.1634713 C13.4909372,44.503342 11.7614488,41.87083 7.28228984,41.8704268 L3.71316491,41.8704268 Z M3.71316491,39.6330235 L7.08277229,39.6330235 C10.8274081,39.6330235 12.5240134,38.8684076 12.5240134,35.6400073 C12.5240134,32.3839897 10.3718867,30.7420715 6.54595104,30.7420715 L3.71316491,30.7420715 L3.71316491,39.6330235 Z M0,29.2402556 L9.09731454,29.2402556 C14.0285654,29.2402556 16.8337136,31.3621501 16.8337136,35.0729458 C16.8337136,38.329165 14.6218729,39.9993053 9.63675837,40.7356991 C15.8716315,40.8768093 17.7671491,44.189271 17.7671491,46.9094729 C17.7671491,50.9585299 13.9995153,53.3660719 9.69122726,53.3660719 L0,53.3660719 L0,29.2402556 L0,29.2402556 Z" id="Fill-3"></path>
            <path d="M39.4863193,51.2687708 L39.117343,53.3662735 L20.6132499,53.3662735 L20.6132499,29.2402556 L24.3250026,29.2402556 L24.3250026,46.5962082 C24.3250026,49.8528305 25.5418781,51.2687708 29.0014601,51.2687708 L39.4863193,51.2687708" id="Fill-5"></path>
            <path d="M63.016883,29.2402556 L63.016883,44.2743403 C63.016883,51.5229708 58.2300756,53.7920232 52.7337604,53.7920232 C45.4500584,53.7920232 42.3342357,50.1096511 42.3342357,45.9722994 L42.3342357,29.2402556 L46.0453833,29.2402556 L46.0453833,45.2677562 C46.0453833,49.2002965 48.2822393,51.6632747 53.0172004,51.6632747 C57.0394259,51.6632747 60.8653616,49.5425896 60.8653616,43.9921198 L60.8653616,29.2402556 L63.016883,29.2402556" id="Fill-6"></path>
            <path d="M69.5805869,31.3055045 L69.5805869,39.7422831 L80.5163276,39.7422831 L80.5163276,41.8389794 L69.5805869,41.8389794 L69.5805869,46.8248067 C69.5805869,50.2227409 70.5408534,51.2687708 73.7151797,51.2687708 L83.2672086,51.2687708 L82.8693839,53.3662735 L65.8668168,53.3662735 L65.8668168,29.2402556 L82.585137,29.2402556 L82.585137,31.3055045 L69.5805869,31.3055045" id="Fill-7"></path>
            <path d="M91.8962924,31.3055045 L91.8962924,47.5053612 C91.8962924,49.7679628 93.3149046,51.2413551 95.6100625,51.2413551 L97.6225874,51.2413551 C103.97003,51.2413551 106.975099,47.1634713 106.975099,42.0083117 C106.975099,36.4896925 103.685984,31.3055045 95.3258156,31.3055045 L91.8962924,31.3055045 Z M88.1845396,53.3662735 L88.1845396,29.2402556 L97.9611015,29.2402556 C102.470521,29.2402556 105.41285,30.39998 107.8232,32.8069172 C110.517595,35.4993003 111.423997,38.1598327 111.423997,41.1346378 C111.423997,46.6248334 107.398544,53.3662735 97.6770563,53.3662735 L88.1845396,53.3662735 L88.1845396,53.3662735 Z" id="Fill-8"></path>
            <path d="M138.940676,51.5544182 C143.585259,51.5544182 146.645604,48.0125516 146.645604,42.3215764 C146.645604,36.1794516 143.725667,30.1709783 137.806512,30.1709783 C133.556728,30.1709783 130.184094,33.2050496 130.184094,39.4354691 C130.184094,45.8876333 133.244036,51.5544182 138.940676,51.5544182 Z M138.429475,28.3915784 C145.598187,28.3915784 150.955506,33.7688858 150.955506,40.9896975 C150.955506,47.9851359 145.284486,53.3662735 137.863604,53.3662735 C131.485094,53.3662735 125.90526,48.494947 125.90526,41.3315874 C125.90526,32.7224527 132.251693,28.3915784 138.429475,28.3915784 L138.429475,28.3915784 Z" id="Fill-9"></path>
            <path d="M157.515175,40.454285 L160.858153,40.454285 C164.825103,40.454285 166.55338,38.7236689 166.55338,35.8938041 C166.55338,33.2050496 164.624375,30.7420715 160.290869,30.7420715 L157.515175,30.7420715 L157.515175,40.454285 Z M157.515175,42.5191307 L157.515175,53.3662735 L153.800799,53.3662735 L153.800799,29.2402556 L161.796027,29.2402556 C168.425295,29.2402556 170.834838,32.0144825 170.834838,35.4678529 C170.834838,38.0469446 169.018804,40.7356991 164.258021,41.5005165 L169.304867,47.276561 C169.304867,47.276561 173.839503,52.259163 175.196989,52.9957584 L175.196989,53.3662735 L172.361581,53.3662735 C169.811428,53.3662735 168.736373,52.5730325 166.097859,49.2851643 L161.369354,43.4282837 C160.54768,42.3495968 160.148443,42.5191307 158.537173,42.5191307 L157.515175,42.5191307 L157.515175,42.5191307 Z" id="Fill-10"></path>
            <path d="M191.818072,33.1729975 C189.465016,30.798314 186.545685,30.8789484 186.545685,30.8789484 C184.475463,30.8789484 182.179297,31.788303 182.179297,33.6844212 C182.179297,34.5621268 182.554729,35.3265411 183.314872,36.09156 C185.212407,37.9588515 190.485804,40.0555478 193.122905,42.7164834 C194.397074,43.9921198 195.077128,45.3776206 195.077128,47.1076319 C195.077128,51.0397691 191.390794,53.7920232 186.235212,53.7920232 C183.658228,53.7920232 179.831486,52.9957584 178.043695,52.0938625 L180.793769,49.3450353 C182.21218,51.409881 186.119617,51.5229708 186.119617,51.5229708 C189.068805,51.5229708 191.447482,50.2783786 191.447482,48.1288668 C191.447482,47.5053612 191.194101,46.567583 190.171296,45.5495735 C187.850316,43.255726 183.117977,41.6134046 180.141958,38.6394059 C179.150221,37.6528439 178.554291,36.4896925 178.554291,34.903412 C178.554291,31.2498667 181.869026,28.8139011 186.743185,28.8139011 C189.123879,28.8139011 191.818072,29.5188475 194.169313,30.8261329 L191.818072,33.1729975" id="Fill-12"></path>
            <path d="M137.112135,40.1877882 C136.086304,39.9589881 135.261806,39.2044516 135.061078,38.1106457 C134.793172,36.6501549 135.761911,35.2523574 137.223493,34.9846511 C138.683461,34.7169449 140.081496,35.6859689 140.348596,37.1428312 C140.538833,38.1828135 140.101267,39.1977992 139.300977,39.7880431 L141.84528,45.9219029 L136.932992,46.8181544 L137.112135,40.1877882" id="Fill-14"></path>
            <path d="M5.47351898,1.76811109 C3.90219216,1.76811109 2.58243095,3.35902806 2.58243095,6.45740537 C2.58243095,9.30460649 3.81847144,11.2095945 5.59920091,11.2095945 C6.87720263,11.2095945 7.79913916,10.5606891 8.9512572,8.8859123 C9.2445823,4.90821671 7.6942361,1.76811109 5.47351898,1.76811109 Z M1.70245565,17.4065507 C5.28509694,17.2809626 8.21814619,14.9151489 8.80459466,10.7072421 L8.74185455,10.6653122 C7.46385283,12.0471845 6.20683172,12.507607 4.78216745,12.507607 C2.10048207,12.507607 0.131128827,10.1629598 0.131128827,7.02265261 C0.131128827,3.52654605 2.54046972,0.63761662 5.45253836,0.63761662 C8.19716558,0.63761662 11.5282413,3.10785186 11.5282413,8.25777023 C11.5282413,14.1196905 6.73054009,18.4322204 1.70245565,18.3275973 L1.70245565,17.4065507 L1.70245565,17.4065507 Z" id="Fill-40"></path>
            <path d="M18.0015671,8.38335832 C21.2699027,6.54126516 21.8145917,6.16450087 21.8145917,4.46875916 C21.8145917,3.2544049 20.8508957,2.29142843 19.5519133,2.29142843 C18.127249,2.29142843 16.556124,3.2126766 15.0057778,4.92918166 L14.272465,4.36393443 C16.0951557,1.91466413 17.9805865,0.63761662 20.3062067,0.63761662 C22.6106445,0.63761662 24.2868744,1.91466413 24.2868744,3.75695888 C24.2868744,5.09669965 23.4278797,6.14353592 21.186182,7.60886479 L20.9765776,7.65079468 C23.4906198,7.29499534 25.5438955,9.51405438 25.5438955,11.7540784 C25.5438955,15.2501849 22.1079168,18.3275973 18.0435283,18.3275973 C16.5141627,18.3275973 14.5657901,17.5948321 13.622873,16.8830318 L14.1467831,16.1295032 C15.4038042,16.7364787 16.5351433,17.1971028 17.6245213,17.1971028 C20.6205124,17.1971028 23.0716128,15.1036319 23.0716128,12.3610539 C23.0716128,10.435101 21.7728322,9.03246535 20.0758234,9.03246535 C19.2585882,9.03246535 18.902523,9.15805345 18.0015671,9.63964248 L18.0015671,8.38335832" id="Fill-41"></path>
            <path d="M47.8763452,16.7784086 L47.6040007,18.3275973 L33.9232293,18.3275973 L33.9232293,0.491063575 L36.6676548,0.491063575 L36.6676548,13.324232 C36.6676548,15.731774 37.5686107,16.7784086 40.1246141,16.7784086 L47.8763452,16.7784086" id="Fill-42"></path>
            <path d="M57.8691687,5.97601793 L60.069107,5.97601793 L60.069107,17.9298681 L57.8691687,18.3275973 L57.8691687,16.3177846 C56.3607837,17.7204202 55.0408208,18.3275973 53.5114552,18.3275973 C51.5630826,18.3275973 49.9707751,17.3646208 49.9707751,14.894184 L49.9707751,5.85042983 L52.1707134,5.85042983 L52.1707134,13.5754082 C52.1707134,15.543291 52.9877468,16.4643376 54.5590737,16.4643376 C55.7113934,16.4643376 56.6121476,15.8363971 57.8691687,14.8314907 L57.8691687,5.97601793" id="Fill-43"></path>
            <path d="M69.6429235,11.9006314 L73.3930062,16.1921965 C73.9586758,16.8201369 74.964333,18.3275973 74.964333,18.3275973 L71.9683419,18.3275973 C71.9683419,18.3275973 70.6903402,16.3597144 70.0409499,15.6061859 L68.1343368,13.4288551 L66.5002699,15.208255 C65.8089183,15.9619852 64.0072082,18.3275973 64.0072082,18.3275973 L62.1005951,18.3275973 C62.1005951,18.3275973 63.4623175,16.7574437 64.3213122,15.8363971 L67.2543615,12.6960899 L63.7976039,8.34163001 C63.2109537,7.60886479 62.1635369,5.97601793 62.1635369,5.97601793 L65.159528,5.97601793 C65.159528,5.97601793 65.7669571,7.12727576 67.0239782,8.8859123 L68.6372663,11.1259363 L70.2923138,9.32557144 C70.8160222,8.7603242 72.6387129,5.97601793 72.6387129,5.97601793 L74.7966899,5.97601793 C74.7966899,5.97601793 72.0940239,9.1370885 71.5493349,9.74426563 L69.6429235,11.9006314" id="Fill-44"></path>
            <path d="M84.7895134,5.97601793 L86.9894517,5.97601793 L86.9894517,17.9298681 L84.7895134,18.3275973 L84.7895134,16.3177846 C83.2811285,17.7204202 81.9611655,18.3275973 80.4317999,18.3275973 C78.4834273,18.3275973 76.8911198,17.3646208 76.8911198,14.894184 L76.8911198,5.85042983 L79.0910581,5.85042983 L79.0910581,13.5754082 C79.0910581,15.543291 79.9078898,16.4643376 81.4794184,16.4643376 C82.6315364,16.4643376 83.5324923,15.8363971 84.7895134,14.8314907 L84.7895134,5.97601793" id="Fill-45"></path>
            <path d="M89.0836799,5.97601793 L91.2836182,5.97601793 L91.2836182,8.15314707 L91.34656,8.15314707 C92.5196587,6.20622917 93.169049,5.97601793 94.5309731,5.97601793 C94.5309731,5.97601793 95.8299555,6.01794782 96.2697414,7.00168766 L94.5099925,8.7603242 C94.36333,7.86004098 93.4413934,8.04852392 93.4413934,8.04852392 C92.8129838,8.04852392 92.3312366,8.48818306 91.2836182,9.97447688 L91.2836182,18.3275973 L89.0836799,18.3275973 L89.0836799,5.97601793" id="Fill-46"></path>
            <path d="M104.084213,19.9396808 C103.308939,21.8656337 102.575626,22.8495752 100.648234,22.744952 C100.648234,22.744952 99.5378752,22.6610922 99.1396471,21.8656337 L100.333928,20.6722444 C100.710974,21.1328685 101.255663,21.0282454 101.255663,21.0282454 C102.261522,20.8607274 102.889932,20.1279621 103.560302,17.8879382 L99.684336,8.46721811 C99.2235695,7.33672364 98.3645748,5.97601793 98.3645748,5.97601793 L101.08802,5.97601793 C101.08802,5.97601793 101.737612,7.69272458 102.219561,8.90687725 L104.649882,15.0826669 L108.001938,5.97601793 L109.698947,5.97601793 C109.698947,5.97601793 108.735251,8.09045382 108.420945,8.90687725 L104.084213,19.9396808" id="Fill-47"></path>
            <path d="M128.260132,3.40095795 C126.521364,1.64252299 124.363185,1.70521625 124.363185,1.70521625 C122.833819,1.70521625 121.13681,2.37508663 121.13681,3.77772224 C121.13681,4.42682927 121.409357,4.9920765 121.974824,5.55732374 C123.378508,6.9389944 127.275455,8.48818306 129.223828,10.4560659 C130.166745,11.3980774 130.669473,12.4239488 130.669473,13.7009963 C130.669473,16.6108906 127.945826,18.6416683 124.133003,18.6416683 C122.22639,18.6416683 119.398042,18.0554562 118.078079,17.3855858 L120.110374,15.3548081 C121.157993,16.8830318 124.049081,16.9668916 124.049081,16.9668916 C126.227837,16.9668916 127.987787,16.0456434 127.987787,14.4547264 C127.987787,13.9941024 127.799365,13.303267 127.04487,12.5495369 C125.327082,10.8537951 121.828364,9.63964248 119.628627,7.44134679 C118.895314,6.70858157 118.455125,5.85042983 118.455125,4.67800546 C118.455125,1.97735739 120.906629,0.176992536 124.510049,0.176992536 C126.269798,0.176992536 128.260132,0.700309876 129.999102,1.66348794 L128.260132,3.40095795" id="Fill-48"></path>
            <path d="M140.662296,5.97601793 L142.862234,5.97601793 L142.862234,17.9298681 L140.662296,18.3275973 L140.662296,16.3177846 C139.153911,17.7204202 137.833948,18.3275973 136.304583,18.3275973 C134.356008,18.3275973 132.763903,17.3646208 132.763903,14.894184 L132.763903,5.85042983 L134.963639,5.85042983 L134.963639,13.5754082 C134.963639,15.543291 135.780874,16.4643376 137.351999,16.4643376 C138.504319,16.4643376 139.405275,15.8363971 140.662296,14.8314907 L140.662296,5.97601793" id="Fill-49"></path>
            <path d="M144.956463,18.3275973 L147.177382,18.3275973 L147.177382,5.97601793 L144.956463,5.97601793 L144.956463,18.3275973 Z M146.046042,0.491063575 C146.821316,0.491063575 147.449726,1.11900407 147.449726,1.91466413 C147.449726,2.68915767 146.821316,3.31729975 146.046042,3.31729975 C145.249788,3.31729975 144.621378,2.68915767 144.621378,1.91466413 C144.621378,1.11900407 145.249788,0.491063575 146.046042,0.491063575 L146.046042,0.491063575 Z" id="Fill-50"></path>
            <path d="M153.441506,7.27403039 L153.441506,15.1663251 C153.441506,16.3597144 153.73463,16.7364787 155.264197,16.7364787 C155.787906,16.7364787 156.541997,16.6318556 157.128647,16.3177846 L157.128647,17.8879382 C156.123192,18.3275973 154.803229,18.3275973 153.69287,18.3275973 C151.974881,18.3275973 151.24177,17.615797 151.24177,16.0246785 L151.24177,7.27403039 L149.272215,7.27403039 L149.272215,6.56223011 C150.759821,6.03871118 151.723315,4.90821671 152.540551,3.88254698 L153.441506,3.88254698 L153.441506,5.97601793 L157.002965,5.97601793 L157.002965,7.27403039 L153.441506,7.27403039" id="Fill-51"></path>
            <path d="M166.786386,9.57674763 C166.430321,8.00659403 165.634067,7.21113555 164.209604,7.21113555 C162.680238,7.21113555 161.716542,8.25777023 161.339295,9.57674763 L166.786386,9.57674763 Z M161.192632,10.7909003 C161.06695,14.3081734 163.287869,16.2341263 165.717989,16.2341263 C166.954029,16.2341263 168.001648,15.8363971 168.986325,14.9780438 L169.531014,15.4803962 C168.420655,17.301726 166.660704,18.3275973 164.670572,18.3275973 C161.506938,18.3275973 159.223279,15.7944672 159.223279,12.2773957 C159.223279,8.69763095 161.611639,5.97601793 164.691553,5.97601793 C168.064388,5.97601793 169.531014,8.9278422 169.531014,10.7909003 L161.192632,10.7909003 L161.192632,10.7909003 Z" id="Fill-52"></path>
            <path d="M173.406576,16.0666084 C174.16087,17.1761379 175.648274,17.0924797 175.648274,17.0924797 C177.031179,17.0924797 177.889972,16.4643376 178.036634,15.5013611 C178.351142,13.4915484 174.579877,13.5334783 172.4219,11.3980774 C171.898191,10.8747601 171.625847,9.97447688 171.625847,9.22094829 C171.625847,7.3157587 173.197174,5.97601793 175.438872,5.97601793 C176.821575,5.97601793 178.015654,6.35278222 178.979552,7.1065124 L177.70155,8.42528822 C177.17764,7.12727576 175.501813,7.21113555 175.501813,7.21113555 C174.78928,7.21113555 173.678921,7.56713648 173.532258,8.69763095 C173.280895,10.6445488 177.512926,11.1259363 179.00033,12.6331951 C179.545019,13.1776789 179.838546,14.0148657 179.838546,14.8734206 C179.838546,17.0088215 178.2882,18.3275973 175.836898,18.3275973 C174.517137,18.3275973 172.987771,17.9925613 171.981912,17.4902089 L173.406576,16.0666084" id="Fill-53"></path>
        </g>
    </g>
</svg>