<?xml version="1.0" encoding="UTF-8"?>
<svg width="211px" height="69px" viewBox="0 0 211 69" version="1.1" xmlns="http://www.w3.org/2000/svg" xmlns:xlink="http://www.w3.org/1999/xlink">
    <!-- Generator: Sketch 53.2 (72643) - https://sketchapp.com -->
    <title>100LuxSuites</title>
    <desc>Created with Sketch.</desc>
    <defs>
        <polygon id="path-1" points="0.097260994 0.178882831 21.6459885 0.178882831 21.6459885 25.8823529 0.097260994 25.8823529"></polygon>
        <polygon id="path-3" points="0.0297933948 0.150945882 17.7220556 0.150945882 17.7220556 25.8823529 0.0297933948 25.8823529"></polygon>
        <polygon id="path-5" points="0 55 201 55 201 0 0 0"></polygon>
    </defs>
    <g id="100LuxSuites" stroke="none" stroke-width="1" fill="none" fill-rule="evenodd">
        <g id="Group-50" transform="translate(5.000000, 7.000000)">
            <path d="M135.153612,32.2746528 C133.787083,30.9525709 132.030901,30.152906 129.88466,30.152906 C125.587908,30.152906 122.182866,33.297199 122.182866,39.7542997 C122.182866,46.4407392 125.273665,52.3135576 131.028007,52.3135576 C132.803499,52.3135576 134.348289,51.7892658 135.584731,50.8177532 C136.167686,50.3617839 137.511653,52.0302692 136.655921,52.5016528 C134.705827,53.5791902 132.420961,54.1911765 129.941573,54.1911765 C123.495937,54.1911765 117.855422,49.1428106 117.855422,41.7189881 C117.855422,32.7970699 124.271991,28.3088235 130.514771,28.3088235 C133.020583,28.3088235 135.310124,28.9749679 137.228916,30.1581135" id="Fill-1" fill="#FFFFFF"></path>
            <path d="M3.87997925,42.2441191 L3.87997925,48.8913305 C3.87997925,51.2760627 5.03499772,52.6012853 7.37109877,52.6012853 L9.23804582,52.6012853 C12.2593808,52.6012853 14.0975312,50.7156005 14.0975312,47.744921 C14.0975312,44.9802108 12.2902793,42.244328 7.60987966,42.2441191 L3.87997925,42.2441191 Z M3.87997925,39.9185038 L7.40136677,39.9185038 C11.3143465,39.9185038 13.0873367,39.1236627 13.0873367,35.7686185 C13.0873367,32.384747 10.8382561,30.678293 6.8401476,30.678293 L3.87997925,30.678293 L3.87997925,39.9185038 Z M0,29.1176471 L9.50646413,29.1176471 C14.6593809,29.1176471 17.5907526,31.3227306 17.5907526,35.1795378 C17.5907526,38.5634094 15.2794545,40.2991084 10.0702056,41.0647044 C16.5853926,41.2113479 18.5662651,44.6539186 18.5662651,47.4810881 C18.5662651,51.6892548 14.6291129,54.1911765 10.1271683,54.1911765 L0,54.1911765 L0,29.1176471 Z" id="Fill-3" fill="#FFFFFF"></path>
            <path d="M40.3614458,52.0110058 L39.9827596,54.1911765 L20.9879518,54.1907587 L20.9879518,29.1176471 L24.7979395,29.1176471 L24.7979395,47.1547628 C24.7979395,50.5393854 26.0471496,52.0110058 29.598623,52.0110058 L40.3614458,52.0110058 Z" id="Fill-5" fill="#FFFFFF"></path>
            <g id="Group-9" transform="translate(43.590361, 29.117647)">
                <mask id="mask-2" fill="white">
                    <use xlink:href="#path-1"></use>
                </mask>
                <g id="Clip-8"></g>
                <path d="M21.6459885,0.178882831 L21.6459885,15.918089 C21.6459885,23.506879 16.6586644,25.882374 10.9321902,25.882374 C3.34348551,25.882374 0.097260994,22.0273764 0.097260994,17.6959751 L0.097260994,0.178882831 L3.96380988,0.178882831 L3.96380988,16.9582229 C3.96380988,21.0752004 6.29442724,23.6537561 11.2276826,23.6537561 C15.4182252,23.6537561 19.404438,21.4335552 19.404438,15.6226514 L19.404438,0.178882831 L21.6459885,0.178882831 Z" id="Fill-7" fill="#FFFFFF" mask="url(#mask-2)"></path>
            </g>
            <path d="M71.5975888,31.2639957 L71.5975888,40.0319602 L82.7588572,40.0319602 L82.7588572,42.2111046 L71.5975888,42.2111046 L71.5975888,47.3928392 C71.5975888,50.924131 72.5776667,52.0111965 75.8172204,52.0111965 L85.5662651,52.0111965 L85.160397,54.1911765 L67.8072289,54.1911765 L67.8072289,29.1176471 L84.8703153,29.1176471 L84.8703153,31.2639957 L71.5975888,31.2639957 Z" id="Fill-10" fill="#FFFFFF"></path>
            <path d="M94.9558366,31.2639957 L94.9558366,48.0999332 C94.9558366,50.4514121 96.3847214,51.9825785 98.696832,51.9825785 L100.724057,51.9825785 C107.118175,51.9825785 110.145133,47.7446106 110.145133,42.3869903 C110.145133,36.6516962 106.831871,31.2639957 98.4105282,31.2639957 L94.9558366,31.2639957 Z M91.2168675,54.1911765 L91.2168675,29.1176471 L101.065069,29.1176471 C105.607431,29.1176471 108.571374,30.3227356 110.999384,32.8244068 C113.713495,35.6224933 114.626506,38.3875752 114.626506,41.4791527 C114.626506,47.1849933 110.571448,54.1911765 100.778967,54.1911765 L91.2168675,54.1911765 Z" id="Fill-12" fill="#FFFFFF"></path>
            <path d="M143.405951,52.3133644 C148.195292,52.3133644 151.351403,48.6425179 151.351403,42.7451675 C151.351403,36.37977 148.340071,30.1530995 142.236307,30.1530995 C137.853718,30.1530995 134.376313,33.2973671 134.376313,39.7542076 C134.376313,46.4408015 137.531594,52.3133644 143.405951,52.3133644 M142.878688,28.3088235 C150.271157,28.3088235 155.795181,33.8814364 155.795181,41.3645642 C155.795181,48.6143976 149.947373,54.1911765 142.295214,54.1911765 C135.717701,54.1911765 129.963855,49.1426429 129.963855,41.7190885 C129.963855,32.7970338 136.508181,28.3088235 142.878688,28.3088235" id="Fill-14" fill="#FFFFFF"></path>
            <path d="M162.807774,40.7719617 L166.213002,40.7719617 C170.254034,40.7719617 172.014532,38.9734306 172.014532,36.0326964 C172.014532,33.2381843 170.049544,30.6784629 165.635185,30.6784629 L162.807774,30.6784629 L162.807774,40.7719617 Z M162.807774,42.9178747 L162.807774,54.1911765 L159.024096,54.1911765 L159.024096,29.1176471 L167.16845,29.1176471 C173.921329,29.1176471 176.375822,32.000728 176.375822,35.5898525 C176.375822,38.2703114 174.525783,41.0646147 169.676217,41.859436 L174.81715,47.8620597 C174.81715,47.8620597 179.436614,53.040409 180.819277,53.8057769 L180.819277,54.1911765 L177.931011,54.1911765 C175.333498,54.1911765 174.238309,53.366693 171.550434,49.9496928 L166.733652,43.862678 C165.896637,42.7419904 165.490116,42.9178747 163.848665,42.9178747 L162.807774,42.9178747 Z" id="Fill-16" fill="#FFFFFF"></path>
            <g id="Group-20" transform="translate(183.240964, 29.117647)">
                <mask id="mask-4" fill="white">
                    <use xlink:href="#path-3"></use>
                </mask>
                <g id="Clip-19"></g>
                <path d="M14.3370997,4.64143059 C11.8930385,2.19523765 8.86042189,2.27826824 8.86042189,2.27826824 C6.71032493,2.27826824 4.32539084,3.21520941 4.32539084,5.16839529 C4.32539084,6.07241412 4.71546285,6.85985882 5.5050087,7.64813176 C7.47584386,9.57191529 12.9531485,11.7317459 15.6924276,14.4727906 C17.0157891,15.7867859 17.7221809,17.2140424 17.7221809,18.9964047 C17.7221809,23.0473035 13.8933327,25.8823529 8.53804315,25.8823529 C5.86165193,25.8823529 1.88676179,25.0619859 0.0297933948,24.13312 L2.88628213,21.3013835 C4.35965534,23.4282918 8.41811742,23.5448659 8.41811742,23.5448659 C11.4812378,23.5448659 13.952042,22.2629647 13.952042,20.0482635 C13.952042,19.4061741 13.6887904,18.4400376 12.6265911,17.3912847 C10.2157497,15.0283294 5.30046639,13.3364518 2.20934945,10.2726024 C1.17911643,9.25656471 0.560266251,8.05810824 0.560266251,6.424 C0.560266251,2.66049882 4.0030121,0.150945882 9.06579991,0.150945882 C11.5384845,0.150945882 14.3370997,0.876894118 16.7790716,2.22381176 L14.3370997,4.64143059 Z" id="Fill-18" fill="#FFFFFF" mask="url(#mask-4)"></path>
            </g>
            <path d="M141.6324,40.9482205 C140.662244,40.7143791 139.882695,39.9436673 139.692659,38.8266075 C139.439467,37.3346623 140.355599,35.9069773 141.737976,35.6337175 C143.118451,35.3600471 144.440716,36.3498183 144.693337,37.8380681 C144.873292,38.9001064 144.459168,39.9368923 143.702637,40.5400759 L146.108434,46.8049318 L141.462908,47.7205882 L141.6324,40.9482205 Z" id="Fill-21" fill="#FFFFFF"></path>
            <path d="M2.44211316,18.6029412 L2.44211316,5.33246067 C2.44211316,3.89603202 1.91303895,3.14569682 0.42744527,3.14569682 L0,3.14569682 L0,2.18101042 C1.81120877,2.18101042 2.84903139,1.8379637 4.09031314,0.808823529 L4.84337349,0.808823529 L4.84337349,18.6029412 L2.44211316,18.6029412 Z" id="Fill-23" fill="#FFFFFF"></path>
            <path d="M9.93597098,13.1488941 C10.0755285,14.0754302 10.3745523,15.0019664 10.8328451,15.9287108 C11.3510609,17.0235188 12.1683004,17.6343371 13.0651745,17.6343371 C14.1414234,17.6343371 15.0980234,16.7709028 15.5766191,15.3601687 C16.035109,14.0754302 16.2343924,12.6855219 16.2343924,10.5585913 C16.2343924,5.02040834 14.9387543,1.94590769 12.6465019,1.94590769 C11.6699932,1.94590769 10.7333019,2.72499778 10.2549033,3.9464261 C9.77650479,5.12578647 9.59693286,6.34700654 9.59693286,8.66345107 C9.59693286,10.2639074 9.73668753,11.8431216 9.93597098,13.1488941 M12.9455256,0.808823529 C16.2144838,0.808823529 18.5662651,4.38855608 18.5662651,9.25302713 C18.5662651,11.5484377 18.0679579,13.7384701 17.0914493,15.5707167 C16.035109,17.5499929 14.5800047,18.6029412 12.8658911,18.6029412 C11.2316091,18.6029412 9.85633644,17.7395069 8.75998179,15.9707788 C7.74326168,14.3492884 7.26506024,12.4539399 7.26506024,10.2426652 C7.26506024,4.99937437 9.75659616,0.808823529 12.9455256,0.808823529" id="Fill-25" fill="#FFFFFF"></path>
            <path d="M24.4660449,13.1488941 C24.6056,14.0754302 24.9046185,15.0019664 25.3629033,15.9287108 C25.8811101,17.0235188 26.6983354,17.6343371 27.5951938,17.6343371 C28.671424,17.6343371 29.6282044,16.7709028 30.1065946,15.3601687 C30.5648794,14.0754302 30.7643565,12.6855219 30.7643565,10.5585913 C30.7643565,5.02040834 29.468741,1.94590769 27.1767256,1.94590769 C26.2000369,1.94590769 25.2631648,2.72499778 24.7849717,3.9464261 C24.3065815,5.12578647 24.1272098,6.34700654 24.1272098,8.66345107 C24.1272098,10.2639074 24.2667649,11.8431216 24.4660449,13.1488941 M27.4757441,0.808823529 C30.7444482,0.808823529 33.0963855,4.38855608 33.0963855,9.25302713 C33.0963855,11.5484377 32.598087,13.7384701 31.6213984,15.5707167 C30.5648794,17.5499929 29.1099976,18.6029412 27.3959139,18.6029412 C25.7614633,18.6029412 24.3862146,17.7395069 23.2900762,15.9707788 C22.2735709,14.3492884 21.7951807,12.4539399 21.7951807,10.2426652 C21.7951807,4.99937437 24.2866732,0.808823529 27.4757441,0.808823529" id="Fill-27" fill="#FFFFFF"></path>
            <path d="M55.6987952,17.0575663 L55.4150712,18.6029412 L41.1686747,18.6029412 L41.1686747,0.808823529 L44.0266275,0.808823529 L44.0266275,13.6113515 C44.0266275,16.0132713 44.9649664,17.0575663 47.6263622,17.0575663 L55.6987952,17.0575663 Z" id="Fill-29" fill="#FFFFFF"></path>
            <path d="M65.5210713,6.59278749 L67.8072289,6.59278749 L67.8072289,18.2162117 L65.5210713,18.6029412 L65.5210713,16.6487596 C63.9536172,18.0126805 62.5820949,18.6029412 60.9926792,18.6029412 C58.9679075,18.6029412 57.313253,17.666617 57.313253,15.2647071 L57.313253,6.47058824 L59.5994106,6.47058824 L59.5994106,13.9821182 C59.5994106,15.8956337 60.4483765,16.7912919 62.0810694,16.7912919 C63.2786215,16.7912919 64.2147878,16.1804969 65.5210713,15.2035068 L65.5210713,6.59278749 Z" id="Fill-31" fill="#FFFFFF"></path>
            <path d="M77.8016941,12.2900829 L81.5670722,16.5056373 C82.1349993,17.1224435 83.1445783,18.6029412 83.1445783,18.6029412 L80.1366446,18.6029412 C80.1366446,18.6029412 78.8535036,16.6701596 78.2013235,15.9297074 L76.2872217,13.7911204 L74.6462658,15.5392465 C73.9522712,16.2794953 72.1432255,18.6029412 72.1432255,18.6029412 L70.2289157,18.6029412 C70.2289157,18.6029412 71.5963096,17.0606205 72.4586019,16.1560527 L75.40371,13.0714115 L71.9329052,8.79423745 C71.3437588,8.07452849 70.2919493,6.47058824 70.2919493,6.47058824 L73.3000911,6.47058824 C73.3000911,6.47058824 73.9100407,7.60150135 75.1721705,9.3288842 L76.7919071,11.5292942 L78.4538743,9.76062823 C78.979779,9.20564497 80.8098359,6.47058824 80.8098359,6.47058824 L82.9764885,6.47058824 C82.9764885,6.47058824 80.26292,9.57556602 79.715796,10.1720358 L77.8016941,12.2900829 Z" id="Fill-33" fill="#FFFFFF"></path>
            <path d="M92.1596255,6.59278749 L94.4457831,6.59278749 L94.4457831,18.2162117 L92.1596255,18.6029412 L92.1596255,16.6487596 C90.5921714,18.0126805 89.2206491,18.6029412 87.6312334,18.6029412 C85.6064617,18.6029412 83.9518072,17.666617 83.9518072,15.2647071 L83.9518072,6.47058824 L86.2379648,6.47058824 L86.2379648,13.9821182 C86.2379648,15.8956337 87.0869307,16.7912919 88.7196236,16.7912919 C89.9171758,16.7912919 90.853342,16.1804969 92.1596255,15.2035068 L92.1596255,6.59278749 Z" id="Fill-35" fill="#FFFFFF"></path>
            <path d="M96.8674699,6.47058824 L99.091562,6.47058824 L99.091562,8.60917524 L99.1548202,8.60917524 C100.341017,6.69673019 100.997897,6.47058824 102.374706,6.47058824 C102.374706,6.47058824 103.687837,6.51166798 104.13253,7.47826212 L102.35334,9.20544161 C102.20483,8.32121031 101.272923,8.50627252 101.272923,8.50627252 C100.637618,8.50627252 100.150614,8.93821991 99.091562,10.3981777 L99.091562,18.6029412 L96.8674699,18.6029412 L96.8674699,6.47058824 Z" id="Fill-37" fill="#FFFFFF"></path>
            <path d="M111.449857,19.7992684 C110.676804,21.7491388 109.945688,22.7454551 108.023797,22.6393882 C108.023797,22.6393882 106.916897,22.5547023 106.519628,21.7491388 L107.710403,20.5413176 C108.0866,21.0075089 108.629721,20.901442 108.629721,20.901442 C109.632294,20.7318607 110.258876,19.9900212 110.927602,17.7221596 L107.062955,8.18389335 C106.603503,7.03916724 105.746988,5.66176471 105.746988,5.66176471 L108.462591,5.66176471 C108.462591,5.66176471 109.110245,7.3997109 109.590769,8.62912284 L112.013637,14.8818302 L115.356235,5.66176471 L117.048193,5.66176471 C117.048193,5.66176471 116.087351,7.80238786 115.774163,8.62912284 L111.449857,19.7992684 Z" id="Fill-39" fill="#FFFFFF"></path>
            <path d="M136.371862,3.2481359 C134.588097,1.47638748 132.374809,1.5397983 132.374809,1.5397983 C130.806125,1.5397983 129.065079,2.21458122 129.065079,3.62776647 C129.065079,4.28169057 129.344556,4.85113643 129.924763,5.4205823 C131.364867,6.81249155 135.361919,8.37335726 137.360551,10.3559884 C138.327563,11.3050648 138.843373,12.3386195 138.843373,13.6251917 C138.843373,16.5568992 136.049454,18.6029412 132.138263,18.6029412 C130.182775,18.6029412 127.28174,18.0122193 125.927711,17.3372278 L128.012205,15.2913945 C129.086757,16.8311928 132.052401,16.9154624 132.052401,16.9154624 C134.287367,16.9154624 136.09281,15.9874534 136.09281,14.3844528 C136.09281,13.9205526 135.899195,13.2244937 135.125586,12.4652325 C133.363499,10.7566864 129.774292,9.53352499 127.518073,7.31873518 C126.765929,6.58054144 126.314516,5.71573464 126.314516,4.53470809 C126.314516,1.81388324 128.829171,0 132.525068,0 C134.330723,0 136.371862,0.527311042 138.155626,1.49745489 L136.371862,3.2481359 Z" id="Fill-41" fill="#FFFFFF"></path>
            <path d="M148.665771,6.59278749 L150.951807,6.59278749 L150.951807,18.2162117 L148.665771,18.6029412 L148.665771,16.6487596 C147.098253,18.0126805 145.726674,18.6029412 144.137409,18.6029412 C142.112338,18.6029412 140.457831,17.666617 140.457831,15.2647071 L140.457831,6.47058824 L142.743652,6.47058824 L142.743652,13.9821182 C142.743652,15.8956337 143.592868,16.7912919 145.225628,16.7912919 C146.423229,16.7912919 147.359649,16.1804969 148.665771,15.2035068 L148.665771,6.59278749 Z" id="Fill-43" fill="#FFFFFF"></path>
            <mask id="mask-6" fill="white">
                <use xlink:href="#path-5"></use>
            </mask>
            <g id="Clip-46"></g>
            <path d="M152.853476,18.6029412 L154.755026,18.6029412 L154.755026,6.28098149 L152.853476,6.28098149 L152.853476,18.6029412 Z M153.786422,0.808823529 C154.449898,0.808823529 154.987952,1.43547588 154.987952,2.22922174 C154.987952,3.0019002 154.449898,3.628346 153.786422,3.628346 C153.104497,3.628346 152.566265,3.0019002 152.566265,2.22922174 C152.566265,1.43547588 153.104497,0.808823529 153.786422,0.808823529 L153.786422,0.808823529 Z" id="Fill-45" fill="#FFFFFF" mask="url(#mask-6)"></path>
            <path d="M160.886243,7.46232158 L160.886243,15.4169856 C160.886243,16.619544 161.187472,16.99953 162.758757,16.99953 C163.296924,16.99953 164.072029,16.8939435 164.674699,16.5773929 L164.674699,18.1599373 C163.641367,18.6029412 162.285306,18.6029412 161.144256,18.6029412 C159.379248,18.6029412 158.625857,17.8857464 158.625857,16.2821266 L158.625857,7.46232158 L156.60241,7.46232158 L156.60241,6.74491818 C158.130906,6.2174034 159.121022,5.07786298 159.96063,4.04411765 L160.886243,4.04411765 L160.886243,6.15417675 L164.545266,6.15417675 L164.545266,7.46232158 L160.886243,7.46232158 Z" id="Fill-47" fill="#FFFFFF" mask="url(#mask-6)"></path>
            <path d="M174.796327,10.0074541 C174.43352,8.46515934 173.623111,7.68384387 172.172728,7.68384387 C170.616033,7.68384387 169.634557,8.71183703 169.250867,10.0074541 L174.796327,10.0074541 Z M169.101526,11.2001702 C168.973489,14.654878 171.234282,16.5465481 173.70875,16.5465481 C174.966973,16.5465481 176.033245,16.1558904 177.036026,15.312753 L177.590361,15.8063117 C176.459965,17.5952842 174.668501,18.6029412 172.642267,18.6029412 C169.421513,18.6029412 167.096386,16.1148113 167.096386,12.6601035 C167.096386,9.14377718 169.528035,6.47058824 172.663361,6.47058824 C176.097158,6.47058824 177.590361,9.36991534 177.590361,11.2001702 L169.101526,11.2001702 Z" id="Fill-48" fill="#FFFFFF" mask="url(#mask-6)"></path>
            <path d="M180.955034,16.3821947 C181.696543,17.4720281 183.158382,17.3898686 183.158382,17.3898686 C184.517578,17.3898686 185.362137,16.772859 185.506325,15.8270081 C185.815066,13.85274 182.108334,13.8940231 179.987263,11.7965159 C179.472422,11.282409 179.204819,10.3981777 179.204819,9.65792887 C179.204819,7.78656356 180.748935,6.47058824 182.952486,6.47058824 C184.311682,6.47058824 185.485552,6.84071265 186.432549,7.58096148 L185.176607,8.87639693 C184.661766,7.60150135 183.014397,7.6838642 183.014397,7.6838642 C182.31423,7.6838642 181.222841,8.03344875 181.078449,9.14382199 C180.831415,11.056267 184.991484,11.5292942 186.453322,13.0097918 C186.988936,13.5444386 187.277108,14.3670503 187.277108,15.2099985 C187.277108,17.3075057 185.753359,18.6029412 183.343912,18.6029412 C182.046627,18.6029412 180.543446,18.2740999 179.554699,17.7803295 L180.955034,16.3821947 Z" id="Fill-49" fill="#FFFFFF" mask="url(#mask-6)"></path>
        </g>
    </g>
</svg>