<?xml version="1.0" encoding="UTF-8"?>
<svg width="196px" height="54px" viewBox="0 0 196 54" version="1.1" xmlns="http://www.w3.org/2000/svg" xmlns:xlink="http://www.w3.org/1999/xlink">
    <!-- Generator: Sketch 54.1 (76490) - https://sketchapp.com -->
    <title>yorkLuxurySuites</title>
    <desc>Created with Sketch.</desc>
    <g id="yorkLuxurySuites" stroke="none" stroke-width="1" fill="none" fill-rule="evenodd">
        <g id="logo" transform="translate(0.000000, 5.000000)" fill="#FFFFFF">
            <path d="M131.691633,27.0808538 C130.345996,25.8104668 128.616608,25.0428939 126.50362,25.0428939 C122.272024,25.0428939 118.918335,28.0622062 118.918335,34.2605964 C118.918335,40.6795936 121.962533,46.3193351 127.628603,46.3193351 C129.378189,46.3193351 130.899224,45.8147003 132.115779,44.8825066 C132.691179,44.4452374 134.014796,46.0468384 133.171211,46.4994318 C131.251085,47.5338876 129.000208,48.1212121 126.558593,48.1212121 C120.211884,48.1212121 114.656672,43.2749883 114.656672,36.1481976 C114.656672,27.5806335 120.975439,23.2727273 127.123515,23.2727273 C129.591097,23.2727273 131.846683,23.9122449 133.736132,25.0477491" id="Fill-1"></path>
            <path d="M1.23988006,24.1818182 L10.2331772,24.1818182 C15.1076016,24.1818182 17.8810252,26.2872416 17.8810252,29.968782 C17.8810252,33.1998519 15.6955379,34.8576799 10.7666498,35.5876327 C16.9300983,35.7289627 18.8050975,39.014658 18.8050975,41.7147569 C18.8050975,45.7314642 15.0798417,48.1212121 10.8202082,48.1212121 L1.23988006,48.1212121 L1.23988006,24.1818182 Z M4.91052123,34.4946707 L8.24125469,34.4946707 C11.9435783,34.4946707 13.6213917,33.7349085 13.6213917,30.5316809 C13.6213917,27.3004596 11.4933854,25.6715331 7.71170473,25.6715331 L4.91052123,25.6715331 L4.91052123,34.4946707 Z M4.91052123,36.7143384 L4.91052123,43.0613261 C4.91052123,45.3377376 6.00417013,46.6036549 8.2134948,46.6036549 L9.97941567,46.6036549 C12.8379294,46.6036549 14.5771464,44.802681 14.5771464,41.9663969 C14.5771464,39.3259169 12.8676505,36.7143384 8.43949646,36.7143384 L4.91052123,36.7143384 Z" id="Fill-3"></path>
            <path d="M40.4587706,46.0398481 L40.0916497,48.1212121 L21.6821589,48.1212121 L21.6821589,24.1818182 L25.3752316,24.1818182 L25.3752316,41.4025901 C25.3752316,44.6356272 26.5846963,46.0398481 30.0272522,46.0398481 L40.4587706,46.0398481 Z" id="Fill-5"></path>
            <path d="M63.7781109,24.1818182 L63.7781109,39.1178788 C63.7781109,46.3204545 59.0115987,48.5757576 53.5391504,48.5757576 C46.2862114,48.5757576 43.1844078,44.9162121 43.1844078,40.8057576 L43.1844078,24.1818182 L46.8794044,24.1818182 L46.8794044,40.1056061 C46.8794044,44.0131818 49.1073728,46.4609091 53.8207043,46.4609091 C57.8262764,46.4609091 61.6359914,44.3536364 61.6359914,38.8389394 L61.6359914,24.1818182 L63.7781109,24.1818182 Z" id="Fill-7"></path>
            <path d="M70.3395552,26.2306491 L70.3395552,34.6013491 L81.1892267,34.6013491 L81.1892267,36.6827132 L70.3395552,36.6827132 L70.3395552,41.6303221 C70.3395552,45.0025707 71.2928983,46.0398481 74.4420948,46.0398481 L83.9175412,46.0398481 L83.522548,48.1212121 L66.6551724,48.1212121 L66.6551724,24.1818182 L83.2409507,24.1818182 L83.2409507,26.2306491 L70.3395552,26.2306491 Z" id="Fill-9"></path>
            <path d="M88.7631184,48.1212121 L88.7631184,24.1818182 L98.4455859,24.1818182 C102.911673,24.1818182 105.826389,25.3316681 108.212393,27.7203417 C110.882554,30.3924301 111.77961,33.0318342 111.77961,35.9844623 C111.77961,41.4313826 107.792205,48.1212121 98.1635459,48.1212121 L88.7631184,48.1212121 Z M92.4396145,26.2306362 L92.4396145,42.3064428 C92.4396145,44.5510636 93.8433153,46.012927 96.1180755,46.012927 L98.1107956,46.012927 C104.3979,46.012927 107.373075,41.9664358 107.373075,36.8498383 C107.373075,31.3740166 104.11586,26.2306362 95.8358843,26.2306362 L92.4396145,26.2306362 Z" id="Fill-11"></path>
            <path d="M138.579894,23.2727273 C145.687155,23.2727273 150.998501,28.6235089 150.998501,35.8058272 C150.998501,42.7675479 145.37596,48.1212121 138.019077,48.1212121 C131.696385,48.1212121 126.164918,43.2750437 126.164918,36.1476473 C126.164918,27.5804494 132.455991,23.2727273 138.579894,23.2727273 M139.087004,46.3183501 C143.691542,46.3183501 146.725127,42.7945536 146.725127,37.1318403 C146.725127,31.0214079 143.830725,25.0428183 137.962345,25.0428183 C133.749486,25.0428183 130.406823,28.0620015 130.406823,34.2601267 C130.406823,40.6797599 133.43935,46.3183501 139.087004,46.3183501" id="Fill-13"></path>
            <path d="M157.555387,37.3583654 L157.555387,48.1212121 L153.875562,48.1212121 L153.875562,24.1818182 L161.797535,24.1818182 C168.365183,24.1818182 170.752223,26.9346049 170.752223,30.3614786 C170.752223,32.9201343 168.953665,35.5881872 164.237193,36.3479158 L169.236717,42.0789414 C169.236717,42.0789414 173.730466,47.0233052 175.074963,47.753377 L175.074963,48.1212121 L172.265764,48.1212121 C169.739618,48.1212121 168.674242,47.3345503 166.059944,44.0709404 L161.374318,38.2592664 C160.560393,37.1902598 160.164997,37.3583654 158.5689,37.3583654 L157.555387,37.3583654 Z M157.555387,35.3078094 L160.868393,35.3078094 C164.798761,35.3078094 166.510982,33.5905898 166.510982,30.784088 C166.510982,28.1158837 164.599173,25.6725264 160.305918,25.6725264 L157.555387,25.6725264 L157.555387,35.3078094 Z" id="Fill-15"></path>
            <path d="M191.515459,28.0633446 C189.173553,25.7012072 186.265468,25.7811536 186.265468,25.7811536 C184.20422,25.7811536 181.918233,26.686354 181.918233,28.5718466 C181.918233,29.4461 182.292494,30.2059707 183.049678,30.9665999 C184.938307,32.8240279 190.189057,34.9108279 192.815724,37.5572532 C194.083927,38.8269912 194.76012,40.2039819 194.76012,41.9257891 C194.76012,45.8372497 191.091053,48.5757576 185.956851,48.5757576 C183.390054,48.5757576 179.580278,47.7832711 177.8006,46.8868695 L180.539104,44.1510922 C181.951055,46.206035 185.841974,46.3179904 185.841974,46.3179904 C188.778018,46.3179904 191.145908,45.0802613 191.145908,42.9417312 C191.145908,42.3224874 190.894273,41.3884639 189.876641,40.376466 C187.565582,38.0932131 182.852899,36.4592408 179.889807,33.50198 C178.90211,32.5197155 178.309036,31.3632982 178.309036,29.78409 C178.309036,26.1499389 181.609616,23.7272727 186.462248,23.7272727 C188.833025,23.7272727 191.515459,24.4272215 193.857213,25.7282099 L191.515459,28.0633446 Z" id="Fill-17"></path>
            <path d="M137.342291,35.0093404 C136.318604,34.7820661 135.495939,34.0309078 135.294917,32.9424793 C135.027193,31.4891678 135.993924,30.0985161 137.453461,29.8319467 C138.910258,29.5662876 140.305225,30.5292449 140.572036,31.9793703 C140.761483,33.0139387 140.32548,34.0231701 139.527028,34.6115345 L142.064468,40.7145627 L137.162437,41.6060606 L137.342291,35.0093404 Z" id="Fill-19"></path>
            <g id="Group" transform="translate(0.179910, -1.909091)">
                <path d="M6.16882492,15.6060606 L6.16882492,9.25733788 L1.48435308,2.44615344 C0.376064476,0.881491315 1.24344979e-14,0.454545455 1.24344979e-14,0.454545455 L3.39688785,0.454545455 C3.39688785,0.454545455 4.20219764,2.23320947 4.82714842,3.24714921 L7.79585458,8.06581888 L10.3884963,4.29569802 C11.1388019,3.19349761 12.5874478,0.454545455 12.5874478,0.454545455 L14.8395802,0.454545455 C14.8395802,0.454545455 13.6059368,2.02011436 12.6047696,3.44286422 L8.510605,9.25733788 L8.510605,15.6060606 L6.16882492,15.6060606 Z" id="Fill-67"></path>
                <path d="M20.9809616,4.85485209 C24.0969701,5.01457302 26.180362,7.30144514 26.03812,10.4042501 C25.8777194,13.5069044 23.5446474,15.7411891 20.6245999,15.5997005 C17.740113,15.4571571 15.4609114,12.8690754 15.6030021,9.89058157 C15.7634027,6.94659346 18.1320353,4.71336346 20.9809616,4.85485209 M20.8561216,14.5887876 C22.6368708,14.6776889 23.7943275,13.6485437 23.901009,11.6811134 C24.0075393,9.73086065 23.4024053,6.0074043 20.8388709,5.88309321 C19.1118408,5.79404126 17.954384,6.52107282 17.8295439,9.16370069 C17.7228624,11.1846224 18.5057989,14.4643258 20.8561216,14.5887876" id="Fill-69"></path>
                <path d="M27.7106447,5.15151515 L29.564446,5.15151515 L29.564446,6.99445953 L29.6168243,6.99445953 C30.6066089,5.34653174 31.1535042,5.15151515 32.3014743,5.15151515 C32.3014743,5.15151515 33.397066,5.18690426 33.7676162,6.01952719 L32.2843651,7.50767692 C32.1603981,6.7459828 31.3831283,6.90561027 31.3831283,6.90561027 C30.8533421,6.90561027 30.4475229,7.27742181 29.564446,8.53637058 L29.564446,15.6060606 L27.7106447,15.6060606 L27.7106447,5.15151515 Z" id="Fill-71"></path>
                <path d="M35.5847076,15.6060606 L37.4468497,15.6060606 L37.4468497,-4.97379915e-14 L35.5847076,-4.97379915e-14 L35.5847076,15.6060606 Z M41.364294,8.01691693 C43.4033237,6.28503465 44.7507739,5.0713665 44.7507739,5.0713665 L41.719124,5.0713665 C41.719124,5.0713665 41.364294,6.26773555 39.3787524,8.37427983 L37.5175144,10.3381824 L41.9140922,14.6775241 C42.2689223,15.034887 42.6056718,15.2661485 43.119309,15.6060606 L44.8215892,15.6060606 L44.8215892,14.6775241 L39.3251136,9.76700879 L41.364294,8.01691693 Z" id="Fill-73"></path>
                <path d="M63.7496252,14.2898583 L63.519031,15.6060606 L51.9385307,15.6060606 L51.9385307,0.454545455 L54.262257,0.454545455 L54.262257,11.3562491 C54.262257,13.4006019 55.0238206,14.2898583 57.1877888,14.2898583 L63.7496252,14.2898583 Z" id="Fill-75"></path>
                <path d="M72.3170772,5.10662321 L74.197901,5.10662321 L74.197901,15.2681936 L72.3170772,15.6060606 L72.3170772,13.8973669 C71.0283955,15.0906395 69.9001142,15.6060606 68.5931706,15.6060606 C66.9269241,15.6060606 65.5667166,14.7872548 65.5667166,12.6877606 L65.5667166,5 L67.4466274,5 L67.4466274,11.5664776 C67.4466274,13.2397815 68.1449931,14.0221387 69.4876995,14.0221387 C70.4729292,14.0221387 71.2428207,13.4884177 72.3170772,12.6339196 L72.3170772,5.10662321 Z" id="Fill-76"></path>
                <path d="M82.2560497,10.1660767 L85.4345575,13.7985053 C85.9135748,14.3299444 86.7661169,15.6060606 86.7661169,15.6060606 L84.2275063,15.6060606 C84.2275063,15.6060606 83.1440579,13.9399112 82.5932031,13.3024554 L80.977161,11.4593605 L79.5918744,12.9658824 C79.0055535,13.6034888 77.4787047,15.6060606 77.4787047,15.6060606 L75.8635682,15.6060606 C75.8635682,15.6060606 77.0168922,14.2773878 77.7459825,13.497472 L80.2317715,10.8390722 L77.3013747,7.154087 C76.8042471,6.53364814 75.916239,5.15151515 75.916239,5.15151515 L78.4557552,5.15151515 C78.4557552,5.15151515 78.9702385,6.12644748 80.0363312,7.6147478 L81.4035076,9.51039936 L82.8069045,7.98655934 C83.2504559,7.50767692 84.7955659,5.15151515 84.7955659,5.15151515 L86.6244039,5.15151515 C86.6244039,5.15151515 84.3329988,7.82693187 83.8720917,8.3412034 L82.2560497,10.1660767 Z" id="Fill-77"></path>
                <path d="M95.1830577,5.10662321 L97.0629685,5.10662321 L97.0629685,15.2681936 L95.1830577,15.6060606 L95.1830577,13.8973669 C93.893463,15.0906395 92.7662469,15.6060606 91.4582381,15.6060606 C89.7929047,15.6060606 88.4317841,14.7872548 88.4317841,12.6877606 L88.4317841,5 L90.312608,5 L90.312608,11.5664776 C90.312608,13.2397815 91.0109736,14.0221387 92.3536801,14.0221387 C93.339062,14.0221387 94.1088012,13.4884177 95.1830577,12.6339196 L95.1830577,5.10662321 Z" id="Fill-78"></path>
                <path d="M98.88006,5.15151515 L100.734011,5.15151515 L100.734011,6.99445953 L100.78729,6.99445953 C101.776174,5.34653174 102.32397,5.15151515 103.47194,5.15151515 C103.47194,5.15151515 104.566481,5.18690426 104.937031,6.01952719 L103.45378,7.50767692 C103.329813,6.7459828 102.552544,6.90561027 102.552544,6.90561027 C102.022907,6.90561027 101.617088,7.27742181 100.734011,8.53637058 L100.734011,15.6060606 L98.88006,15.6060606 L98.88006,5.15151515 Z" id="Fill-79"></path>
                <path d="M111.644686,16.8542722 C110.981853,18.4890473 110.355556,19.3250891 108.706999,19.2359718 C108.706999,19.2359718 107.757202,19.16498 107.416956,18.4890473 L108.438303,17.4765834 C108.761195,17.8676425 109.225817,17.7785251 109.225817,17.7785251 C110.085947,17.6366925 110.623186,17.0143814 111.196352,15.1121031 L107.882796,7.11495164 C107.488507,6.15520284 106.754123,5 106.754123,5 L109.08302,5 C109.08302,5 109.638527,6.45729563 110.050172,7.48803623 L112.127881,12.7305545 L114.994017,5 L116.445277,5 C116.445277,5 115.621075,6.79473328 115.352379,7.48803623 L111.644686,16.8542722 Z" id="Fill-80"></path>
                <path d="M132.255976,2.90313915 C130.770682,1.4025984 128.928584,1.45558725 128.928584,1.45558725 C127.622985,1.45558725 126.173569,2.0279882 126.173569,3.2250198 C126.173569,3.77829011 126.406169,4.26111107 126.888547,4.74302105 C128.088184,5.92259214 131.415424,7.2448839 133.079044,8.92367364 C133.88387,9.72746427 134.313343,10.6035262 134.313343,11.6926063 C134.313343,14.1762495 131.98765,15.9090909 128.73171,15.9090909 C127.103816,15.9090909 124.689491,15.4088094 123.562219,14.8373195 L125.297443,13.1044781 C126.191812,14.4083983 128.66041,14.4797587 128.66041,14.4797587 C130.520904,14.4797587 132.023376,13.6943395 132.023376,12.3363676 C132.023376,11.9431266 131.862229,11.353417 131.218551,10.7105667 C129.751804,9.26301479 126.76419,8.22692352 124.885301,6.35136145 C124.259866,5.72597166 123.884666,4.99354136 123.884666,3.99313025 C123.884666,1.68879888 125.976695,0.151515152 129.054005,0.151515152 C130.556478,0.151515152 132.255976,0.59880778 133.741118,1.42081806 L132.255976,2.90313915 Z" id="Fill-81"></path>
                <path d="M142.730284,5.10662321 L144.610195,5.10662321 L144.610195,15.2681936 L142.730284,15.6060606 L142.730284,13.8973669 C141.440689,15.0906395 140.313321,15.6060606 139.005312,15.6060606 C137.339979,15.6060606 135.97901,14.7872548 135.97901,12.6877606 L135.97901,5 L137.859682,5 L137.859682,11.5664776 C137.859682,13.2397815 138.5582,14.0221387 139.900906,14.0221387 C140.885223,14.0221387 141.656028,13.4884177 142.730284,12.6339196 L142.730284,5.10662321 Z" id="Fill-82"></path>
                <path d="M147.344982,0.454545455 C148.008931,0.454545455 148.547226,0.987887735 148.547226,1.6642002 C148.547226,2.32237692 148.008931,2.8557192 147.344982,2.8557192 C146.662581,2.8557192 146.124438,2.32237692 146.124438,1.6642002 C146.124438,0.987887735 146.662581,0.454545455 147.344982,0.454545455 L147.344982,0.454545455 Z M146.411885,15.6060606 L148.314067,15.6060606 L148.314067,5.11392276 L146.411885,5.11392276 L146.411885,15.6060606 Z" id="Fill-83"></path>
                <path d="M153.596855,6.21468528 L153.596855,12.9204568 C153.596855,13.9336612 153.84522,14.2541137 155.142756,14.2541137 C155.586491,14.2541137 156.226653,14.1649312 156.724138,13.8981393 L156.724138,15.2317962 C155.871092,15.6060606 154.751714,15.6060606 153.809588,15.6060606 C152.352918,15.6060606 151.731779,15.0006774 151.731779,13.6496374 L151.731779,6.21468528 L150.061469,6.21468528 L150.061469,5.61020902 C151.322619,5.16505209 152.140335,4.20460144 152.832888,3.33333333 L153.596855,3.33333333 L153.596855,5.11229835 L156.61679,5.11229835 L156.61679,6.21468528 L153.596855,6.21468528 Z" id="Fill-84"></path>
                <path d="M160.219597,9.22743707 C160.112651,12.2041883 162.004911,13.834798 164.074959,13.834798 C165.128338,13.834798 166.020008,13.4983756 166.859496,12.7708658 L167.323838,13.1962881 C166.378315,14.7381992 164.878039,15.6060606 163.182378,15.6060606 C160.487341,15.6060606 158.541229,13.4620829 158.541229,10.4854823 C158.541229,7.45512032 160.57669,5.15151515 163.200429,5.15151515 C166.074012,5.15151515 167.323838,7.65013691 167.323838,9.22743707 L160.219597,9.22743707 Z M164.985895,8.19979755 C164.681592,6.87112471 164.003661,6.1972257 162.789484,6.1972257 C161.486868,6.1972257 160.665281,7.08330878 160.344747,8.19979755 L164.985895,8.19979755 Z" id="Fill-85"></path>
                <path d="M170.651575,13.692338 C171.290926,14.6309777 172.552414,14.5603501 172.552414,14.5603501 C173.725565,14.5603501 174.45416,14.0287604 174.578738,13.2145097 C174.84511,11.5129712 171.646541,11.5483603 169.815767,9.74065446 C169.372872,9.2980647 169.14093,8.53621998 169.14093,7.89771009 C169.14093,6.28517141 170.473239,5.15151515 172.374984,5.15151515 C173.54738,5.15151515 174.560467,5.4707701 175.378003,6.10837645 L174.293945,7.22486522 C173.849237,6.12644748 172.428742,6.1972257 172.428742,6.1972257 C171.82397,6.1972257 170.882611,6.49840962 170.758032,7.45527091 C170.545268,9.10304811 174.134031,9.51024876 175.395217,10.7865156 C175.85729,11.2471764 176.106447,11.955561 176.106447,12.6820166 C176.106447,14.4895718 174.791352,15.6060606 172.712177,15.6060606 C171.592632,15.6060606 170.296111,15.3221948 169.442938,14.8967725 L170.651575,13.692338 Z" id="Fill-86"></path>
            </g>
        </g>
    </g>
</svg>