<?xml version="1.0" encoding="UTF-8"?>
<svg width="32px" height="32px" viewBox="0 0 32 32" version="1.1" xmlns="http://www.w3.org/2000/svg" xmlns:xlink="http://www.w3.org/1999/xlink">
    <!-- Generator: Sketch 55.1 (78136) - https://sketchapp.com -->
    <title>WhatsAppIcon</title>
    <desc>Created with Sketch.</desc>
    <g id="WhatsAppIcon" stroke="none" stroke-width="1" fill="none" fill-rule="evenodd">
        <g id="Group-3" fill="#FFFFFF">
            <path d="M23.3232649,19.2619532 C22.9252888,19.0628506 20.9687064,18.1001012 20.6038759,17.9672134 C20.2390453,17.8344019 19.9737279,17.7680344 19.7084105,18.166316 C19.4430931,18.5647504 18.6804391,19.4612086 18.4481909,19.7269079 C18.2160955,19.992378 17.9839236,20.0257527 17.5860239,19.8264974 C17.1879714,19.627242 15.9056038,19.2070415 14.3854893,17.8510511 C13.2023294,16.7958148 12.4036277,15.4925976 12.1714558,15.0940869 C11.9393604,14.6957289 12.1467876,14.4803589 12.346043,14.2818673 C12.5250597,14.1035379 12.7440191,13.816989 12.942969,13.5846644 C13.1419952,13.3522635 13.2082864,13.1861537 13.3409451,12.9207599 C13.4736038,12.6550606 13.4073126,12.4226597 13.3077995,12.2234807 C13.2082864,12.0243017 12.4123341,10.0652754 12.0807255,9.26833031 C11.7576706,8.49246396 11.4295752,8.59755227 11.1852601,8.58517995 C10.9533938,8.57364773 10.6877709,8.57120382 10.4225298,8.57120382 C10.1572124,8.57120382 9.72601432,8.67079332 9.36126014,9.06915131 C8.99642959,9.46766205 7.96830549,10.4304878 7.96830549,12.3893613 C7.96830549,14.3483112 9.39440573,16.2406644 9.59343198,16.5062874 C9.79238186,16.7719866 12.3997327,20.7917671 16.3920955,22.5157193 C17.3416325,22.9257623 18.0829785,23.1706883 18.6608878,23.3539819 C19.6143198,23.6570272 20.4819093,23.6142587 21.16758,23.5117671 C21.9322196,23.3975141 23.5222148,22.5490177 23.8538998,21.6194138 C24.1855084,20.6896573 24.1855084,19.8928649 24.0859952,19.7269079 C23.9865585,19.5608745 23.7212411,19.4612086 23.3232649,19.2619532 M16.0616325,29.176989 L16.0562864,29.176989 C13.6808019,29.1760726 11.3508353,28.5379055 9.31818616,27.3316811 L8.83482578,27.0447504 L3.8242673,28.3591179 L5.16162291,23.4738864 L4.8468926,22.9730368 C3.52168019,20.8652372 2.8218043,18.4291895 2.82279608,15.9276907 C2.82569928,8.62848305 8.76456325,2.69007733 16.0669021,2.69007733 C19.6029403,2.69129928 22.9268926,4.07020143 25.4264057,6.57254033 C27.9258425,9.07480286 29.301537,12.4010463 29.3002396,15.9383064 C29.2972601,23.2381251 23.3583962,29.176989 16.0616325,29.176989 M27.3286874,4.67109881 C24.3215274,1.66042578 20.3223675,0.00169546539 16.0614797,1.5274463e-05 C7.28225298,1.5274463e-05 0.137011933,7.14472172 0.133498807,15.9266215 C0.132353222,18.733915 0.865756563,21.474001 2.25962768,23.8895809 L0,32.1432134 L8.44357041,29.9282635 C10.7700239,31.1971895 13.3893652,31.8660582 16.0551408,31.8669747 L16.0616325,31.8669747 L16.0617088,31.8669747 C24.8400191,31.8669747 31.9859475,24.7215045 31.9894618,15.9393757 C31.9910644,11.6835284 30.3358473,7.68169547 27.3286874,4.67109881" id="Fill-1"></path>
        </g>
    </g>
</svg>